<mxfile host="app.diagrams.net" modified="2023-05-31T12:54:58.302Z" agent="Mozilla/5.0 (Windows NT 10.0; Win64; x64) AppleWebKit/537.36 (KHTML, like Gecko) Chrome/113.0.0.0 Safari/537.36" etag="8GLSCj3A7dEdwT76wg0g" version="21.3.6" type="github">
  <diagram name="Página-1" id="7ZFkFAz9iX5EPi56Q5da">
    <mxGraphModel dx="1914" dy="1011" grid="1" gridSize="10" guides="1" tooltips="1" connect="1" arrows="1" fold="1" page="1" pageScale="1" pageWidth="827" pageHeight="1169" math="0" shadow="0">
      <root>
        <mxCell id="0" />
        <mxCell id="1" parent="0" />
        <mxCell id="3UQKpk68wU8RZs8VAPkV-1" value="" style="swimlane;startSize=0;" parent="1" vertex="1">
          <mxGeometry x="114" y="60" width="600" height="900" as="geometry" />
        </mxCell>
        <mxCell id="3UQKpk68wU8RZs8VAPkV-5" value="&lt;font style=&quot;font-size: 15px;&quot;&gt;Cadastrar novos funcionários&lt;/font&gt;" style="ellipse;whiteSpace=wrap;html=1;" parent="3UQKpk68wU8RZs8VAPkV-1" vertex="1">
          <mxGeometry x="223" y="660" width="154" height="100" as="geometry" />
        </mxCell>
        <mxCell id="3UQKpk68wU8RZs8VAPkV-8" value="&lt;font style=&quot;font-size: 15px;&quot;&gt;Cadastrar informações dos pacientes&lt;/font&gt;" style="ellipse;whiteSpace=wrap;html=1;" parent="3UQKpk68wU8RZs8VAPkV-1" vertex="1">
          <mxGeometry x="326" y="430" width="164" height="90" as="geometry" />
        </mxCell>
        <mxCell id="3UQKpk68wU8RZs8VAPkV-9" value="&lt;font style=&quot;font-size: 15px;&quot;&gt;Disponibilizar/alterar agenda de compromissos&lt;/font&gt;" style="ellipse;whiteSpace=wrap;html=1;" parent="3UQKpk68wU8RZs8VAPkV-1" vertex="1">
          <mxGeometry x="223" y="280" width="154" height="100" as="geometry" />
        </mxCell>
        <mxCell id="3UQKpk68wU8RZs8VAPkV-14" value="&lt;font style=&quot;font-size: 15px;&quot;&gt;&amp;nbsp;Gerar relatórios acerca das consultas e faturamento.&lt;/font&gt;" style="ellipse;whiteSpace=wrap;html=1;" parent="3UQKpk68wU8RZs8VAPkV-1" vertex="1">
          <mxGeometry x="142" y="140" width="184" height="100" as="geometry" />
        </mxCell>
        <mxCell id="3UQKpk68wU8RZs8VAPkV-21" value="&lt;font size=&quot;1&quot; style=&quot;&quot;&gt;&lt;b style=&quot;font-size: 18px;&quot;&gt;Clínica médica&lt;/b&gt;&lt;/font&gt;" style="text;html=1;strokeColor=none;fillColor=none;align=center;verticalAlign=middle;whiteSpace=wrap;rounded=0;" parent="3UQKpk68wU8RZs8VAPkV-1" vertex="1">
          <mxGeometry x="236" y="20" width="86" height="30" as="geometry" />
        </mxCell>
        <mxCell id="3UQKpk68wU8RZs8VAPkV-22" value="&lt;font style=&quot;font-size: 15px;&quot;&gt;Gerar informações sobre os convênios&lt;/font&gt;" style="ellipse;whiteSpace=wrap;html=1;" parent="3UQKpk68wU8RZs8VAPkV-1" vertex="1">
          <mxGeometry x="116" y="780" width="154" height="100" as="geometry" />
        </mxCell>
        <mxCell id="AwLQSNVYpXwr-3Axn_4K-4" value="" style="endArrow=none;html=1;rounded=0;entryX=-0.025;entryY=0.378;entryDx=0;entryDy=0;entryPerimeter=0;" edge="1" parent="3UQKpk68wU8RZs8VAPkV-1" target="AwLQSNVYpXwr-3Axn_4K-3">
          <mxGeometry width="50" height="50" relative="1" as="geometry">
            <mxPoint x="-24" y="400" as="sourcePoint" />
            <mxPoint x="126" y="460" as="targetPoint" />
            <Array as="points" />
          </mxGeometry>
        </mxCell>
        <mxCell id="AwLQSNVYpXwr-3Axn_4K-3" value="&lt;font style=&quot;font-size: 15px;&quot;&gt;Cadastrar dados da clínica&lt;/font&gt;" style="ellipse;whiteSpace=wrap;html=1;" vertex="1" parent="3UQKpk68wU8RZs8VAPkV-1">
          <mxGeometry x="196" y="520" width="140" height="100" as="geometry" />
        </mxCell>
        <mxCell id="3UQKpk68wU8RZs8VAPkV-2" value="&lt;font style=&quot;font-size: 15px;&quot;&gt;Médico&lt;/font&gt;" style="shape=umlActor;verticalLabelPosition=bottom;verticalAlign=top;html=1;outlineConnect=0;" parent="1" vertex="1">
          <mxGeometry x="750" y="370" width="40" height="90" as="geometry" />
        </mxCell>
        <mxCell id="3UQKpk68wU8RZs8VAPkV-3" value="&lt;font style=&quot;font-size: 15px;&quot;&gt;Secretário&lt;/font&gt;" style="shape=umlActor;verticalLabelPosition=bottom;verticalAlign=top;html=1;outlineConnect=0;" parent="1" vertex="1">
          <mxGeometry x="40" y="410" width="40" height="80" as="geometry" />
        </mxCell>
        <mxCell id="3UQKpk68wU8RZs8VAPkV-15" value="" style="endArrow=none;html=1;rounded=0;entryX=0.058;entryY=0.7;entryDx=0;entryDy=0;entryPerimeter=0;" parent="1" target="3UQKpk68wU8RZs8VAPkV-5" edge="1">
          <mxGeometry width="50" height="50" relative="1" as="geometry">
            <mxPoint x="90" y="460" as="sourcePoint" />
            <mxPoint x="430" y="390" as="targetPoint" />
          </mxGeometry>
        </mxCell>
        <mxCell id="3UQKpk68wU8RZs8VAPkV-17" value="" style="endArrow=none;html=1;rounded=0;entryX=0;entryY=0.5;entryDx=0;entryDy=0;" parent="1" target="3UQKpk68wU8RZs8VAPkV-9" edge="1">
          <mxGeometry width="50" height="50" relative="1" as="geometry">
            <mxPoint x="90" y="460" as="sourcePoint" />
            <mxPoint x="330" y="425" as="targetPoint" />
          </mxGeometry>
        </mxCell>
        <mxCell id="3UQKpk68wU8RZs8VAPkV-18" value="" style="endArrow=none;html=1;rounded=0;entryX=0;entryY=0.5;entryDx=0;entryDy=0;" parent="1" target="3UQKpk68wU8RZs8VAPkV-14" edge="1">
          <mxGeometry width="50" height="50" relative="1" as="geometry">
            <mxPoint x="90" y="460" as="sourcePoint" />
            <mxPoint x="330" y="345" as="targetPoint" />
          </mxGeometry>
        </mxCell>
        <mxCell id="3UQKpk68wU8RZs8VAPkV-19" value="" style="endArrow=none;html=1;rounded=0;entryX=1;entryY=0.5;entryDx=0;entryDy=0;" parent="1" source="3UQKpk68wU8RZs8VAPkV-2" target="3UQKpk68wU8RZs8VAPkV-9" edge="1">
          <mxGeometry width="50" height="50" relative="1" as="geometry">
            <mxPoint x="100" y="470" as="sourcePoint" />
            <mxPoint x="330" y="275" as="targetPoint" />
          </mxGeometry>
        </mxCell>
        <mxCell id="3UQKpk68wU8RZs8VAPkV-20" value="" style="endArrow=none;html=1;rounded=0;entryX=1;entryY=0.5;entryDx=0;entryDy=0;" parent="1" target="3UQKpk68wU8RZs8VAPkV-8" edge="1">
          <mxGeometry width="50" height="50" relative="1" as="geometry">
            <mxPoint x="750" y="420" as="sourcePoint" />
            <mxPoint x="330" y="345" as="targetPoint" />
          </mxGeometry>
        </mxCell>
        <mxCell id="3UQKpk68wU8RZs8VAPkV-23" value="" style="endArrow=none;html=1;rounded=0;entryX=0;entryY=0.5;entryDx=0;entryDy=0;" parent="1" target="3UQKpk68wU8RZs8VAPkV-22" edge="1">
          <mxGeometry width="50" height="50" relative="1" as="geometry">
            <mxPoint x="90" y="460" as="sourcePoint" />
            <mxPoint x="337" y="435" as="targetPoint" />
          </mxGeometry>
        </mxCell>
      </root>
    </mxGraphModel>
  </diagram>
</mxfile>
